<svg width="512" height="512" viewBox="0 0 512 512" fill="none" xmlns="http://www.w3.org/2000/svg">
<g clip-path="url(#clip0_450_2238)">
<path d="M256 36C143.417 36 51.2926 130.011 44.0294 248.893C43.5264 257.1 50.0106 264.044 58.2304 264.044H453.779C461.999 264.044 468.478 257.1 467.98 248.893C460.707 130.011 368.583 36 256 36ZM198.712 205.123C189.728 205.123 182.943 196.882 184.763 188.083C192.011 153.018 221.153 126.795 256 126.795C290.847 126.795 319.988 153.018 327.237 188.083C329.056 196.887 322.271 205.123 313.287 205.123H198.712Z" fill="white"/>
<path d="M383.588 317.525C376.162 317.525 369.195 321.253 365.181 327.502C342.711 362.498 302.228 385.856 256.001 385.856C209.773 385.856 169.291 362.498 146.82 327.502C142.807 321.253 135.844 317.525 128.413 317.525H78.3694C62.7482 317.525 52.0481 333.405 58.0441 347.831C89.2322 422.894 166.086 476 255.996 476C345.906 476 422.76 422.894 453.948 347.831C459.944 333.4 449.244 317.525 433.622 317.525H383.579H383.588Z" fill="white"/>
</g>
<defs>
<clipPath id="clip0_450_2238">
<rect width="424" height="440" fill="white" transform="translate(44 36)"/>
</clipPath>
</defs>
</svg>
