<svg xmlns="http://www.w3.org/2000/svg" viewBox="0 0 120 60" fill="none">
  <path d="M35.79,26.67c0,1.06,0.12,1.92,0.33,2.56c0.22,0.64,0.51,1.34,0.9,2.11c0.14,0.24,0.2,0.47,0.2,0.67c0,0.29-0.18,0.59-0.55,0.88l-1.83,1.22c-0.26,0.17-0.51,0.26-0.75,0.26c-0.29,0-0.58-0.14-0.86-0.41c-0.4-0.44-0.75-0.9-1.03-1.38c-0.28-0.48-0.56-1.02-0.84-1.63c-2.11,2.48-4.76,3.72-7.96,3.72c-2.27,0-4.08-0.65-5.42-1.96c-1.34-1.3-2.01-3.04-2.01-5.21c0-2.31,0.82-4.19,2.46-5.63c1.64-1.44,3.82-2.16,6.55-2.16c0.91,0,1.85,0.08,2.83,0.22c0.98,0.15,1.99,0.37,3.04,0.65v-1.93c0-2-0.42-3.41-1.26-4.23c-0.84-0.82-2.26-1.23-4.27-1.23c-0.92,0-1.87,0.11-2.85,0.33c-0.98,0.22-1.94,0.51-2.87,0.86c-0.43,0.17-0.75,0.27-0.94,0.31c-0.2,0.04-0.34,0.06-0.43,0.06c-0.38,0-0.57-0.28-0.57-0.84v-1.32c0-0.44,0.06-0.75,0.18-0.94c0.12-0.19,0.33-0.38,0.65-0.57c0.81-0.42,1.79-0.77,2.93-1.05c1.14-0.28,2.35-0.42,3.64-0.42c2.77,0,4.8,0.63,6.08,1.89c1.28,1.26,1.93,3.17,1.93,5.73v7.55H35.79z M25.06,31.78c0.88,0,1.79-0.16,2.75-0.47c0.96-0.31,1.81-0.88,2.56-1.69c0.43-0.5,0.75-1.06,0.94-1.69c0.2-0.63,0.29-1.38,0.29-2.26v-1.09c-0.77-0.19-1.58-0.34-2.44-0.45c-0.86-0.11-1.7-0.16-2.52-0.16c-1.79,0-3.11,0.36-3.95,1.07c-0.84,0.71-1.26,1.72-1.26,3.02c0,1.22,0.31,2.14,0.94,2.75C22.99,31.47,23.89,31.78,25.06,31.78z M47.5,33.97c-0.48,0-0.8-0.08-1.01-0.25c-0.21-0.17-0.39-0.55-0.55-1.15l-6.12-20.15c-0.16-0.6-0.24-0.99-0.24-1.17c0-0.48,0.24-0.73,0.71-0.73h2.91c0.56,0,0.94,0.08,1.13,0.25c0.2,0.17,0.36,0.55,0.51,1.15l4.37,17.22l4.06-17.22c0.13-0.6,0.28-0.98,0.47-1.15c0.19-0.17,0.59-0.25,1.19-0.25h2.38c0.56,0,0.95,0.08,1.15,0.25c0.2,0.17,0.37,0.55,0.47,1.15l4.1,17.43l4.5-17.43c0.15-0.6,0.32-0.98,0.51-1.15c0.19-0.17,0.58-0.25,1.15-0.25h2.77c0.48,0,0.73,0.24,0.73,0.73c0,0.14-0.02,0.29-0.06,0.45c-0.04,0.16-0.1,0.39-0.2,0.71l-6.28,20.15c-0.16,0.6-0.34,0.98-0.55,1.15c-0.21,0.17-0.54,0.25-1.01,0.25h-2.56c-0.56,0-0.95-0.08-1.15-0.24c-0.2-0.16-0.38-0.54-0.51-1.13l-4.02-16.73l-3.99,16.71c-0.13,0.6-0.3,0.98-0.51,1.13c-0.21,0.16-0.61,0.24-1.17,0.24H47.5z M84.79,34.38c-1.22,0-2.42-0.14-3.62-0.42c-1.2-0.28-2.13-0.59-2.81-0.92c-0.39-0.19-0.66-0.4-0.78-0.61c-0.13-0.21-0.19-0.44-0.19-0.67v-1.36c0-0.56,0.21-0.84,0.63-0.84c0.16,0,0.33,0.02,0.49,0.06c0.17,0.04,0.42,0.14,0.75,0.27c1.02,0.45,2.12,0.8,3.31,1.05c1.19,0.25,2.35,0.38,3.5,0.38c1.85,0,3.29-0.32,4.31-0.97c1.02-0.65,1.53-1.57,1.53-2.77c0-0.81-0.26-1.48-0.78-2.01c-0.52-0.53-1.5-1-2.93-1.42l-4.21-1.32c-2.12-0.67-3.68-1.65-4.68-2.95c-1-1.3-1.5-2.75-1.5-4.33c0-1.26,0.27-2.37,0.8-3.33c0.53-0.96,1.25-1.78,2.15-2.46c0.9-0.68,1.93-1.2,3.1-1.55c1.17-0.35,2.4-0.53,3.7-0.53c0.65,0,1.32,0.04,2,0.12c0.68,0.08,1.32,0.19,1.93,0.33c0.59,0.13,1.15,0.27,1.67,0.43c0.52,0.16,0.94,0.31,1.26,0.47c0.41,0.21,0.71,0.42,0.9,0.65c0.19,0.22,0.28,0.52,0.28,0.9v1.26c0,0.56-0.21,0.85-0.63,0.85c-0.23,0-0.59-0.12-1.09-0.35c-1.65-0.75-3.5-1.13-5.56-1.13c-1.68,0-3,0.27-3.95,0.8c-0.95,0.53-1.42,1.34-1.42,2.42c0,0.81,0.28,1.5,0.84,2.05c0.56,0.55,1.59,1.05,3.08,1.5l4.12,1.3c2.09,0.67,3.6,1.61,4.54,2.83c0.94,1.22,1.4,2.63,1.4,4.23c0,1.28-0.25,2.43-0.76,3.45c-0.51,1.02-1.21,1.89-2.11,2.6c-0.9,0.71-1.97,1.26-3.22,1.63C87.49,34.19,86.16,34.38,84.79,34.38z" fill="#252F3E"/>
  <path d="M89.46,42.13c-5.36,3.96-13.15,6.06-19.83,6.06c-9.38,0-17.83-3.47-24.22-9.24c-0.5-0.45-0.05-1.07,0.55-0.72c6.88,4,15.37,6.41,24.14,6.41c5.92,0,12.42-1.23,18.4-3.76C89.46,40.4,90.4,41.45,89.46,42.13z M92.34,38.87c-0.68-0.87-4.53-0.42-6.26-0.21c-0.52,0.06-0.6-0.39-0.13-0.73c3.07-2.15,8.1-1.53,8.69-0.81c0.59,0.73-0.16,5.77-3.03,8.18c-0.44,0.37-0.86,0.17-0.67-0.32C91.68,43.38,93.03,39.75,92.34,38.87z" fill="#FF9900"/>
</svg>
