<svg xmlns="http://www.w3.org/2000/svg" viewBox="0 0 120 60" fill="none">
  <path d="M40.02,32.37c0-4.92,4.16-8.83,9.08-8.83c2.72,0,4.67,1.07,6.13,2.46l-1.73,1.73c-1.04-0.98-2.46-1.74-4.4-1.74c-3.6,0-6.42,2.9-6.42,6.38c0,3.48,2.82,6.38,6.42,6.38c2.34,0,3.67-0.94,4.52-1.79c0.7-0.7,1.16-1.7,1.34-3.07h-5.86v-2.45h8.25c0.08,0.44,0.13,0.96,0.13,1.52c0,1.83-0.5,4.1-2.11,5.71c-1.57,1.63-3.57,2.5-6.23,2.5C44.18,41.2,40.02,37.29,40.02,32.37z" fill="#4285F4"/>
  <path d="M61.95,28.53c-3.18,0-5.76,2.42-5.76,5.75c0,3.32,2.58,5.75,5.76,5.75c3.18,0,5.76-2.43,5.76-5.75C67.71,30.95,65.13,28.53,61.95,28.53z M61.95,37.58c-1.68,0-3.13-1.38-3.13-3.3c0-1.93,1.45-3.3,3.13-3.3c1.68,0,3.13,1.37,3.13,3.3C65.08,36.2,63.63,37.58,61.95,37.58z" fill="#EA4335"/>
  <path d="M73.89,28.53c-3.18,0-5.76,2.42-5.76,5.75c0,3.32,2.58,5.75,5.76,5.75c3.18,0,5.76-2.43,5.76-5.75C79.65,30.95,77.07,28.53,73.89,28.53z M73.89,37.58c-1.68,0-3.13-1.38-3.13-3.3c0-1.93,1.45-3.3,3.13-3.3c1.68,0,3.13,1.37,3.13,3.3C77.02,36.2,75.57,37.58,73.89,37.58z" fill="#FBBC05"/>
  <path d="M85.48,28.78v0.73h-0.08c-0.54-0.64-1.58-1.22-2.9-1.22c-2.75,0-5.27,2.41-5.27,5.51c0,3.09,2.52,5.49,5.27,5.49c1.32,0,2.36-0.58,2.9-1.24h0.08v0.78c0,2.11-1.13,3.24-2.94,3.24c-1.48,0-2.4-1.06-2.77-1.95l-2.1,0.88c0.6,1.45,2.2,3.23,4.87,3.23c2.83,0,5.22-1.67,5.22-5.73v-9.72H85.48z M82.71,37.58c-1.68,0-3.09-1.41-3.09-3.34c0-1.95,1.41-3.35,3.09-3.35c1.66,0,2.96,1.41,2.96,3.35C85.67,36.17,84.37,37.58,82.71,37.58z" fill="#4285F4"/>
  <path d="M92.03,23.2h-2.63v16.82h2.63V23.2z" fill="#34A853"/>
</svg>
