<svg xmlns="http://www.w3.org/2000/svg" viewBox="0 0 120 60" fill="none">
  <path d="M28.5,28.5h-13v-13h13V28.5z" fill="#f25022"/>
  <path d="M44.5,28.5h-13v-13h13V28.5z" fill="#7fba00"/>
  <path d="M28.5,44.5h-13v-13h13V44.5z" fill="#00a4ef"/>
  <path d="M44.5,44.5h-13v-13h13V44.5z" fill="#ffb900"/>
  <path d="M54.5,25.6h-2.2v7.6h-1.6v-7.6h-2.2v-1.4h6V25.6z M55.1,33.2v-9h1.5l3.1,6.5l3.1-6.5h1.5v9h-1.5v-6.6l-2.8,6h-1.5l-2.8-6v6.6H55.1z M72.1,33.2h-1.6l-0.7-1.8h-3.6l-0.7,1.8h-1.6l3.4-9h1.5L72.1,33.2z M69.3,30l-1.3-3.5L66.7,30H69.3z M78.5,33.2h-5.5v-9h1.6v7.6h3.9V33.2z M84.2,33.2h-5.5v-9h5.4v1.4h-3.8v2.3h3.5v1.4h-3.5v2.5h3.9V33.2z M85.9,33.2v-9h1.6v7.6h3.9v1.4H85.9z M92.5,33.2v-9h1.6v9H92.5z" fill="#737373"/>
</svg>
