<svg xmlns="http://www.w3.org/2000/svg" viewBox="0 0 120 60" fill="none">
  <path d="M60,22.5c-8.28,0-15,3.36-15,7.5s6.72,7.5,15,7.5s15-3.36,15-7.5S68.28,22.5,60,22.5z M60,35.5c-7.17,0-13-2.46-13-5.5s5.83-5.5,13-5.5s13,2.46,13,5.5S67.17,35.5,60,35.5z M60,25.5c-6.07,0-11,2.01-11,4.5s4.93,4.5,11,4.5s11-2.01,11-4.5S66.07,25.5,60,25.5z M52.5,30c0-1.38,3.36-2.5,7.5-2.5s7.5,1.12,7.5,2.5s-3.36,2.5-7.5,2.5S52.5,31.38,52.5,30z" fill="#F80000"/>
  <path d="M39,29h3v2h-3V29z M78,29h3v2h-3V29z M44,29h3v2h-3V29z M73,29h3v2h-3V29z M49,29h3v2h-3V29z M68,29h3v2h-3V29z" fill="#F80000"/>
</svg>
