<svg xmlns="http://www.w3.org/2000/svg" viewBox="0 0 120 60" fill="none">
  <path d="M49.09,35.37c0.83,0,1.5-0.67,1.5-1.5c0-0.83-0.67-1.5-1.5-1.5c-0.83,0-1.5,0.67-1.5,1.5C47.59,34.7,48.26,35.37,49.09,35.37z M83.63,29.67c-0.54-0.24-1.13-0.36-1.77-0.36c-1.47,0-2.74,0.78-3.46,1.95c-0.31-0.86-1.13-1.47-2.09-1.47c-0.83,0-1.55,0.46-1.93,1.14v-0.72h-1.53v7.67h1.53v-4.03c0-1.26,0.7-2.28,1.96-2.28c1.16,0,1.74,0.73,1.74,2.28v4.03h1.53v-4.03c0-1.26,0.7-2.28,1.96-2.28c1.16,0,1.74,0.73,1.74,2.28v4.03h1.53v-4.34C84.84,31.31,84.38,30.05,83.63,29.67z M69.3,30.21h-2.69v-2.28h-1.53v2.28h-1.53v1.47h1.53v3.52c0,1.75,0.67,2.68,2.59,2.68h1.63v-1.5h-1.5c-0.73,0-1.19-0.37-1.19-1.19v-3.51h2.69V30.21z M59.14,29.31c-2.25,0-4.06,1.77-4.06,4.06c0,2.29,1.81,4.06,4.06,4.06c2.25,0,4.06-1.77,4.06-4.06C63.2,31.08,61.39,29.31,59.14,29.31z M59.14,35.95c-1.41,0-2.53-1.13-2.53-2.59c0-1.47,1.12-2.59,2.53-2.59c1.41,0,2.53,1.13,2.53,2.59C61.67,34.83,60.55,35.95,59.14,35.95z M49.09,29.31c-1.23,0-2.25,1.01-2.25,2.25c0,1.24,1.01,2.25,2.25,2.25c1.24,0,2.25-1.01,2.25-2.25C51.34,30.32,50.33,29.31,49.09,29.31z M49.09,32.37c-0.45,0-0.81-0.36-0.81-0.81c0-0.45,0.36-0.81,0.81-0.81c0.45,0,0.81,0.36,0.81,0.81C49.9,32.01,49.54,32.37,49.09,32.37z M44.09,29.31c-2.25,0-4.06,1.77-4.06,4.06c0,2.29,1.81,4.06,4.06,4.06c2.25,0,4.06-1.77,4.06-4.06C48.15,31.08,46.34,29.31,44.09,29.31z M44.09,35.95c-1.41,0-2.53-1.13-2.53-2.59c0-1.47,1.12-2.59,2.53-2.59c1.41,0,2.53,1.13,2.53,2.59C46.62,34.83,45.5,35.95,44.09,35.95z M36.37,22.59c-7.73,0-14,6.27-14,14c0,7.73,6.27,14,14,14c7.73,0,14-6.27,14-14C50.37,28.86,44.1,22.59,36.37,22.59z M36.37,47.41c-5.97,0-10.82-4.85-10.82-10.82c0-5.97,4.85-10.82,10.82-10.82c5.97,0,10.82,4.85,10.82,10.82C47.19,42.56,42.34,47.41,36.37,47.41z" fill="#00A1E0"/>
</svg>
