<svg width="960" height="960" viewBox="0 0 960 960" fill="none" xmlns="http://www.w3.org/2000/svg">
<mask id="mask0_9_2755" style="mask-type:alpha" maskUnits="userSpaceOnUse" x="0" y="0" width="960" height="960">
<rect width="960" height="960" fill="url(#paint0_radial_9_2755)"/>
</mask>
<g mask="url(#mask0_9_2755)">
<g clip-path="url(#clip0_9_2755)">
<g clip-path="url(#clip1_9_2755)">
<line x1="96.5" x2="96.5" y2="960" stroke="#D0D5DD"/>
<line x1="192.5" x2="192.5" y2="960" stroke="#D0D5DD"/>
<line x1="288.5" x2="288.5" y2="960" stroke="#D0D5DD"/>
<line x1="384.5" x2="384.5" y2="960" stroke="#D0D5DD"/>
<line x1="480.5" x2="480.5" y2="960" stroke="#D0D5DD"/>
<line x1="576.5" x2="576.5" y2="960" stroke="#D0D5DD"/>
<line x1="672.5" x2="672.5" y2="960" stroke="#D0D5DD"/>
<line x1="768.5" x2="768.5" y2="960" stroke="#D0D5DD"/>
<line x1="864.5" x2="864.5" y2="960" stroke="#D0D5DD"/>
</g>
<g clip-path="url(#clip2_9_2755)">
<line y1="95.5" x2="960" y2="95.5" stroke="#D0D5DD"/>
<line y1="191.5" x2="960" y2="191.5" stroke="#D0D5DD"/>
<line y1="287.5" x2="960" y2="287.5" stroke="#D0D5DD"/>
<line y1="383.5" x2="960" y2="383.5" stroke="#D0D5DD"/>
<line y1="479.5" x2="960" y2="479.5" stroke="#D0D5DD"/>
<line y1="575.5" x2="960" y2="575.5" stroke="#D0D5DD"/>
<line y1="671.5" x2="960" y2="671.5" stroke="#D0D5DD"/>
<line y1="767.5" x2="960" y2="767.5" stroke="#D0D5DD"/>
<line y1="863.5" x2="960" y2="863.5" stroke="#D0D5DD"/>
</g>
</g>
</g>
<defs>
<radialGradient id="paint0_radial_9_2755" cx="0" cy="0" r="1" gradientUnits="userSpaceOnUse" gradientTransform="translate(480 -0.000114441) rotate(90) scale(960 501.059)">
<stop/>
<stop offset="0.953125" stop-opacity="0"/>
</radialGradient>
<clipPath id="clip0_9_2755">
<rect width="960" height="960" fill="white"/>
</clipPath>
<clipPath id="clip1_9_2755">
<rect width="960" height="960" fill="white"/>
</clipPath>
<clipPath id="clip2_9_2755">
<rect width="960" height="960" fill="white"/>
</clipPath>
</defs>
</svg>
